<mxfile host="app.diagrams.net" modified="2024-04-09T15:04:52.841Z" agent="Mozilla/5.0 (Macintosh; Intel Mac OS X 10_15_7) AppleWebKit/537.36 (KHTML, like Gecko) Chrome/123.0.0.0 Safari/537.36" etag="mmFVkYsH-6UV31uBQgL3" version="24.2.3" type="github">
  <diagram name="Page-1" id="aJdUUnHXH2kh8VmLgzIS">
    <mxGraphModel dx="1243" dy="831" grid="1" gridSize="10" guides="1" tooltips="1" connect="1" arrows="1" fold="1" page="1" pageScale="1" pageWidth="850" pageHeight="1100" math="0" shadow="0">
      <root>
        <mxCell id="0" />
        <mxCell id="1" parent="0" />
        <mxCell id="bp-vKxV_hlAgK0k2TYMo-3" value="Data Center 1" style="rounded=1;whiteSpace=wrap;html=1;dashed=1;strokeWidth=2;fillColor=#f5f5f5;fontColor=#333333;strokeColor=#666666;align=right;labelPosition=left;verticalLabelPosition=top;verticalAlign=bottom;" parent="1" vertex="1">
          <mxGeometry x="110" y="340" width="250" height="270" as="geometry" />
        </mxCell>
        <mxCell id="u_6Jhnb3s3K0sa4x8jdL-8" value="" style="rounded=1;whiteSpace=wrap;html=1;dashed=1;strokeWidth=2;fillColor=none;strokeColor=#3399FF;" parent="1" vertex="1">
          <mxGeometry x="127.77000000000004" y="500" width="95.77" height="100" as="geometry" />
        </mxCell>
        <mxCell id="IRDAZbnhrmjxmqdq8_ro-2" value="DNS" style="image;aspect=fixed;html=1;points=[];align=center;fontSize=12;image=img/lib/azure2/networking/DNS_Zones.svg;" parent="1" vertex="1">
          <mxGeometry x="510" y="70" width="64" height="64" as="geometry" />
        </mxCell>
        <mxCell id="IRDAZbnhrmjxmqdq8_ro-3" value="Client" style="sketch=0;outlineConnect=0;fontColor=#232F3E;gradientColor=none;strokeColor=#232F3E;fillColor=#ffffff;dashed=0;verticalLabelPosition=bottom;verticalAlign=top;align=center;html=1;fontSize=12;fontStyle=0;aspect=fixed;shape=mxgraph.aws4.resourceIcon;resIcon=mxgraph.aws4.client;" parent="1" vertex="1">
          <mxGeometry x="350" y="70" width="60" height="60" as="geometry" />
        </mxCell>
        <mxCell id="IRDAZbnhrmjxmqdq8_ro-4" value="" style="endArrow=classic;html=1;rounded=0;" parent="1" edge="1">
          <mxGeometry width="50" height="50" relative="1" as="geometry">
            <mxPoint x="420" y="80" as="sourcePoint" />
            <mxPoint x="500" y="80" as="targetPoint" />
          </mxGeometry>
        </mxCell>
        <mxCell id="IRDAZbnhrmjxmqdq8_ro-5" value="" style="endArrow=classic;html=1;rounded=0;" parent="1" edge="1">
          <mxGeometry width="50" height="50" relative="1" as="geometry">
            <mxPoint x="500" y="120" as="sourcePoint" />
            <mxPoint x="410" y="120" as="targetPoint" />
          </mxGeometry>
        </mxCell>
        <mxCell id="IRDAZbnhrmjxmqdq8_ro-6" value="domain.com" style="text;html=1;align=center;verticalAlign=middle;whiteSpace=wrap;rounded=0;" parent="1" vertex="1">
          <mxGeometry x="425" y="57" width="60" height="30" as="geometry" />
        </mxCell>
        <mxCell id="IRDAZbnhrmjxmqdq8_ro-7" value="IP address" style="text;html=1;align=center;verticalAlign=middle;whiteSpace=wrap;rounded=0;" parent="1" vertex="1">
          <mxGeometry x="425" y="98" width="60" height="30" as="geometry" />
        </mxCell>
        <mxCell id="IRDAZbnhrmjxmqdq8_ro-9" value="Public IP" style="endArrow=classic;html=1;rounded=0;entryX=0;entryY=0.5;entryDx=0;entryDy=0;entryPerimeter=0;" parent="1" target="bp-vKxV_hlAgK0k2TYMo-7" edge="1">
          <mxGeometry width="50" height="50" relative="1" as="geometry">
            <mxPoint x="379.5" y="160" as="sourcePoint" />
            <mxPoint x="379.5" y="230" as="targetPoint" />
          </mxGeometry>
        </mxCell>
        <mxCell id="IGtKASbwkltZqIFQSp29-2" value="" style="shape=datastore;whiteSpace=wrap;html=1;strokeColor=#004C99;strokeWidth=2;" parent="1" vertex="1">
          <mxGeometry x="149.54000000000002" y="510" width="30" height="40" as="geometry" />
        </mxCell>
        <mxCell id="bp-vKxV_hlAgK0k2TYMo-7" value="Load Balancer" style="sketch=0;points=[[0.015,0.015,0],[0.985,0.015,0],[0.985,0.985,0],[0.015,0.985,0],[0.25,0,0],[0.5,0,0],[0.75,0,0],[1,0.25,0],[1,0.5,0],[1,0.75,0],[0.75,1,0],[0.5,1,0],[0.25,1,0],[0,0.75,0],[0,0.5,0],[0,0.25,0]];verticalLabelPosition=top;html=1;verticalAlign=bottom;aspect=fixed;align=center;pointerEvents=1;shape=mxgraph.cisco19.rect;prIcon=load_balancer;fillColor=#FAFAFA;strokeColor=#005073;labelPosition=center;rotation=90;textDirection=ltr;" parent="1" vertex="1">
          <mxGeometry x="348" y="230" width="64" height="50" as="geometry" />
        </mxCell>
        <mxCell id="bp-vKxV_hlAgK0k2TYMo-8" value="&lt;span style=&quot;font-size: 12px; text-wrap: wrap; background-color: rgb(251, 251, 251);&quot;&gt;Geo-routed&lt;/span&gt;" style="endArrow=classic;html=1;rounded=0;exitX=1;exitY=0.5;exitDx=0;exitDy=0;exitPerimeter=0;entryX=0.5;entryY=0;entryDx=0;entryDy=0;" parent="1" source="bp-vKxV_hlAgK0k2TYMo-7" target="bp-vKxV_hlAgK0k2TYMo-3" edge="1">
          <mxGeometry width="50" height="50" relative="1" as="geometry">
            <mxPoint x="190" y="300" as="sourcePoint" />
            <mxPoint x="240" y="250" as="targetPoint" />
          </mxGeometry>
        </mxCell>
        <mxCell id="ZAImQmK_n9Z3y-bCYSJ8-1" value="CDN" style="image;aspect=fixed;html=1;points=[];align=center;fontSize=12;image=img/lib/azure2/app_services/CDN_Profiles.svg;" parent="1" vertex="1">
          <mxGeometry x="212" y="80" width="68" height="40" as="geometry" />
        </mxCell>
        <mxCell id="ZAImQmK_n9Z3y-bCYSJ8-2" value="" style="endArrow=classic;html=1;rounded=0;" parent="1" source="IRDAZbnhrmjxmqdq8_ro-3" target="ZAImQmK_n9Z3y-bCYSJ8-1" edge="1">
          <mxGeometry width="50" height="50" relative="1" as="geometry">
            <mxPoint x="400" y="450" as="sourcePoint" />
            <mxPoint x="450" y="400" as="targetPoint" />
          </mxGeometry>
        </mxCell>
        <mxCell id="ZAImQmK_n9Z3y-bCYSJ8-3" value="" style="outlineConnect=0;dashed=0;verticalLabelPosition=bottom;verticalAlign=top;align=center;html=1;shape=mxgraph.aws3.cache_node;fillColor=#2E73B8;gradientColor=none;" parent="1" vertex="1">
          <mxGeometry x="266.75" y="510" width="32.5" height="40" as="geometry" />
        </mxCell>
        <mxCell id="gn3RjjWk8DFoDF5kcvNO-3" value="NoSQL&lt;div&gt;(Shared storage)&lt;/div&gt;" style="outlineConnect=0;dashed=0;verticalLabelPosition=bottom;verticalAlign=top;align=center;html=1;shape=mxgraph.aws3.dynamo_db;fillColor=#2E73B8;gradientColor=none;" parent="1" vertex="1">
          <mxGeometry x="344" y="620" width="72" height="81" as="geometry" />
        </mxCell>
        <mxCell id="gn3RjjWk8DFoDF5kcvNO-4" value="" style="endArrow=classic;html=1;rounded=0;exitX=1;exitY=1;exitDx=0;exitDy=0;entryX=0.5;entryY=0;entryDx=0;entryDy=0;entryPerimeter=0;" parent="1" target="gn3RjjWk8DFoDF5kcvNO-3" edge="1" source="Y4jwXqfifL86XG0g3Bbs-1">
          <mxGeometry width="50" height="50" relative="1" as="geometry">
            <mxPoint x="380" y="930" as="sourcePoint" />
            <mxPoint x="486" y="1064" as="targetPoint" />
          </mxGeometry>
        </mxCell>
        <mxCell id="Y4jwXqfifL86XG0g3Bbs-1" value="" style="rounded=1;whiteSpace=wrap;html=1;dashed=1;strokeWidth=2;fillColor=none;strokeColor=#3399FF;" vertex="1" parent="1">
          <mxGeometry x="164.69" y="350" width="130" height="120" as="geometry" />
        </mxCell>
        <mxCell id="Y4jwXqfifL86XG0g3Bbs-2" value="" style="sketch=0;outlineConnect=0;fontColor=#232F3E;gradientColor=none;fillColor=#009900;strokeColor=none;dashed=0;verticalLabelPosition=bottom;verticalAlign=top;align=center;html=1;fontSize=12;fontStyle=0;aspect=fixed;pointerEvents=1;shape=mxgraph.aws4.traditional_server;strokeWidth=1;" vertex="1" parent="1">
          <mxGeometry x="194.69" y="360" width="28.85" height="50" as="geometry" />
        </mxCell>
        <mxCell id="Y4jwXqfifL86XG0g3Bbs-3" value="" style="sketch=0;outlineConnect=0;fontColor=#232F3E;gradientColor=none;fillColor=#009900;strokeColor=none;dashed=0;verticalLabelPosition=bottom;verticalAlign=top;align=center;html=1;fontSize=12;fontStyle=0;aspect=fixed;pointerEvents=1;shape=mxgraph.aws4.traditional_server;strokeWidth=1;" vertex="1" parent="1">
          <mxGeometry x="237.83999999999997" y="360" width="28.85" height="50" as="geometry" />
        </mxCell>
        <mxCell id="Y4jwXqfifL86XG0g3Bbs-4" value="" style="sketch=0;outlineConnect=0;fontColor=#232F3E;gradientColor=none;fillColor=#009900;strokeColor=none;dashed=0;verticalLabelPosition=bottom;verticalAlign=top;align=center;html=1;fontSize=12;fontStyle=0;aspect=fixed;pointerEvents=1;shape=mxgraph.aws4.traditional_server;strokeWidth=1;" vertex="1" parent="1">
          <mxGeometry x="179.83999999999997" y="385" width="28.85" height="50" as="geometry" />
        </mxCell>
        <mxCell id="Y4jwXqfifL86XG0g3Bbs-5" value="" style="sketch=0;outlineConnect=0;fontColor=#232F3E;gradientColor=none;fillColor=#009900;strokeColor=none;dashed=0;verticalLabelPosition=bottom;verticalAlign=top;align=center;html=1;fontSize=12;fontStyle=0;aspect=fixed;pointerEvents=1;shape=mxgraph.aws4.traditional_server;strokeWidth=1;" vertex="1" parent="1">
          <mxGeometry x="216.27000000000004" y="385" width="28.85" height="50" as="geometry" />
        </mxCell>
        <mxCell id="Y4jwXqfifL86XG0g3Bbs-6" value="" style="sketch=0;outlineConnect=0;fontColor=#232F3E;gradientColor=none;fillColor=#009900;strokeColor=none;dashed=0;verticalLabelPosition=bottom;verticalAlign=top;align=center;html=1;fontSize=12;fontStyle=0;aspect=fixed;pointerEvents=1;shape=mxgraph.aws4.traditional_server;strokeWidth=1;" vertex="1" parent="1">
          <mxGeometry x="249.69" y="385" width="28.85" height="50" as="geometry" />
        </mxCell>
        <mxCell id="Y4jwXqfifL86XG0g3Bbs-8" value="Servers" style="text;html=1;align=center;verticalAlign=middle;whiteSpace=wrap;rounded=0;" vertex="1" parent="1">
          <mxGeometry x="199.69" y="435" width="60" height="30" as="geometry" />
        </mxCell>
        <mxCell id="Y4jwXqfifL86XG0g3Bbs-18" value="" style="shape=datastore;whiteSpace=wrap;html=1;strokeColor=#004C99;strokeWidth=2;" vertex="1" parent="1">
          <mxGeometry x="159.54000000000002" y="520" width="30" height="40" as="geometry" />
        </mxCell>
        <mxCell id="Y4jwXqfifL86XG0g3Bbs-19" value="" style="shape=datastore;whiteSpace=wrap;html=1;strokeColor=#004C99;strokeWidth=2;" vertex="1" parent="1">
          <mxGeometry x="169.54000000000002" y="530" width="30" height="40" as="geometry" />
        </mxCell>
        <mxCell id="Y4jwXqfifL86XG0g3Bbs-20" value="Databases" style="text;html=1;align=center;verticalAlign=middle;whiteSpace=wrap;rounded=0;" vertex="1" parent="1">
          <mxGeometry x="144.54000000000002" y="570" width="60" height="30" as="geometry" />
        </mxCell>
        <mxCell id="Y4jwXqfifL86XG0g3Bbs-26" value="" style="outlineConnect=0;dashed=0;verticalLabelPosition=bottom;verticalAlign=top;align=center;html=1;shape=mxgraph.aws3.cache_node;fillColor=#2E73B8;gradientColor=none;" vertex="1" parent="1">
          <mxGeometry x="276.75" y="520" width="32.5" height="40" as="geometry" />
        </mxCell>
        <mxCell id="Y4jwXqfifL86XG0g3Bbs-27" value="" style="outlineConnect=0;dashed=0;verticalLabelPosition=bottom;verticalAlign=top;align=center;html=1;shape=mxgraph.aws3.cache_node;fillColor=#2E73B8;gradientColor=none;" vertex="1" parent="1">
          <mxGeometry x="286.75" y="530" width="32.5" height="40" as="geometry" />
        </mxCell>
        <mxCell id="Y4jwXqfifL86XG0g3Bbs-28" value="" style="rounded=1;whiteSpace=wrap;html=1;dashed=1;strokeWidth=2;fillColor=none;strokeColor=#3399FF;" vertex="1" parent="1">
          <mxGeometry x="245.12" y="500" width="95.77" height="100" as="geometry" />
        </mxCell>
        <mxCell id="Y4jwXqfifL86XG0g3Bbs-29" value="Caches" style="text;html=1;align=center;verticalAlign=middle;whiteSpace=wrap;rounded=0;" vertex="1" parent="1">
          <mxGeometry x="261.89" y="570" width="60" height="30" as="geometry" />
        </mxCell>
        <mxCell id="Y4jwXqfifL86XG0g3Bbs-36" value="Data Center 2" style="rounded=1;whiteSpace=wrap;html=1;dashed=1;strokeWidth=2;fillColor=#f5f5f5;fontColor=#333333;strokeColor=#666666;align=left;labelPosition=right;verticalLabelPosition=top;verticalAlign=bottom;" vertex="1" parent="1">
          <mxGeometry x="400" y="340" width="250" height="270" as="geometry" />
        </mxCell>
        <mxCell id="Y4jwXqfifL86XG0g3Bbs-37" value="" style="rounded=1;whiteSpace=wrap;html=1;dashed=1;strokeWidth=2;fillColor=none;strokeColor=#3399FF;" vertex="1" parent="1">
          <mxGeometry x="417.77000000000004" y="500" width="95.77" height="100" as="geometry" />
        </mxCell>
        <mxCell id="Y4jwXqfifL86XG0g3Bbs-38" value="" style="shape=datastore;whiteSpace=wrap;html=1;strokeColor=#004C99;strokeWidth=2;" vertex="1" parent="1">
          <mxGeometry x="439.54" y="510" width="30" height="40" as="geometry" />
        </mxCell>
        <mxCell id="Y4jwXqfifL86XG0g3Bbs-39" value="" style="outlineConnect=0;dashed=0;verticalLabelPosition=bottom;verticalAlign=top;align=center;html=1;shape=mxgraph.aws3.cache_node;fillColor=#2E73B8;gradientColor=none;" vertex="1" parent="1">
          <mxGeometry x="556.75" y="510" width="32.5" height="40" as="geometry" />
        </mxCell>
        <mxCell id="Y4jwXqfifL86XG0g3Bbs-40" value="" style="rounded=1;whiteSpace=wrap;html=1;dashed=1;strokeWidth=2;fillColor=none;strokeColor=#3399FF;" vertex="1" parent="1">
          <mxGeometry x="454.69" y="350" width="130" height="120" as="geometry" />
        </mxCell>
        <mxCell id="Y4jwXqfifL86XG0g3Bbs-41" value="" style="sketch=0;outlineConnect=0;fontColor=#232F3E;gradientColor=none;fillColor=#009900;strokeColor=none;dashed=0;verticalLabelPosition=bottom;verticalAlign=top;align=center;html=1;fontSize=12;fontStyle=0;aspect=fixed;pointerEvents=1;shape=mxgraph.aws4.traditional_server;strokeWidth=1;" vertex="1" parent="1">
          <mxGeometry x="484.69" y="360" width="28.85" height="50" as="geometry" />
        </mxCell>
        <mxCell id="Y4jwXqfifL86XG0g3Bbs-42" value="" style="sketch=0;outlineConnect=0;fontColor=#232F3E;gradientColor=none;fillColor=#009900;strokeColor=none;dashed=0;verticalLabelPosition=bottom;verticalAlign=top;align=center;html=1;fontSize=12;fontStyle=0;aspect=fixed;pointerEvents=1;shape=mxgraph.aws4.traditional_server;strokeWidth=1;" vertex="1" parent="1">
          <mxGeometry x="527.8399999999999" y="360" width="28.85" height="50" as="geometry" />
        </mxCell>
        <mxCell id="Y4jwXqfifL86XG0g3Bbs-43" value="" style="sketch=0;outlineConnect=0;fontColor=#232F3E;gradientColor=none;fillColor=#009900;strokeColor=none;dashed=0;verticalLabelPosition=bottom;verticalAlign=top;align=center;html=1;fontSize=12;fontStyle=0;aspect=fixed;pointerEvents=1;shape=mxgraph.aws4.traditional_server;strokeWidth=1;" vertex="1" parent="1">
          <mxGeometry x="469.84" y="385" width="28.85" height="50" as="geometry" />
        </mxCell>
        <mxCell id="Y4jwXqfifL86XG0g3Bbs-44" value="" style="sketch=0;outlineConnect=0;fontColor=#232F3E;gradientColor=none;fillColor=#009900;strokeColor=none;dashed=0;verticalLabelPosition=bottom;verticalAlign=top;align=center;html=1;fontSize=12;fontStyle=0;aspect=fixed;pointerEvents=1;shape=mxgraph.aws4.traditional_server;strokeWidth=1;" vertex="1" parent="1">
          <mxGeometry x="506.27000000000004" y="385" width="28.85" height="50" as="geometry" />
        </mxCell>
        <mxCell id="Y4jwXqfifL86XG0g3Bbs-45" value="" style="sketch=0;outlineConnect=0;fontColor=#232F3E;gradientColor=none;fillColor=#009900;strokeColor=none;dashed=0;verticalLabelPosition=bottom;verticalAlign=top;align=center;html=1;fontSize=12;fontStyle=0;aspect=fixed;pointerEvents=1;shape=mxgraph.aws4.traditional_server;strokeWidth=1;" vertex="1" parent="1">
          <mxGeometry x="539.69" y="385" width="28.85" height="50" as="geometry" />
        </mxCell>
        <mxCell id="Y4jwXqfifL86XG0g3Bbs-46" value="Servers" style="text;html=1;align=center;verticalAlign=middle;whiteSpace=wrap;rounded=0;" vertex="1" parent="1">
          <mxGeometry x="489.69" y="435" width="60" height="30" as="geometry" />
        </mxCell>
        <mxCell id="Y4jwXqfifL86XG0g3Bbs-47" value="" style="shape=datastore;whiteSpace=wrap;html=1;strokeColor=#004C99;strokeWidth=2;" vertex="1" parent="1">
          <mxGeometry x="449.54" y="520" width="30" height="40" as="geometry" />
        </mxCell>
        <mxCell id="Y4jwXqfifL86XG0g3Bbs-48" value="" style="shape=datastore;whiteSpace=wrap;html=1;strokeColor=#004C99;strokeWidth=2;" vertex="1" parent="1">
          <mxGeometry x="459.54" y="530" width="30" height="40" as="geometry" />
        </mxCell>
        <mxCell id="Y4jwXqfifL86XG0g3Bbs-49" value="Databases" style="text;html=1;align=center;verticalAlign=middle;whiteSpace=wrap;rounded=0;" vertex="1" parent="1">
          <mxGeometry x="434.54" y="570" width="60" height="30" as="geometry" />
        </mxCell>
        <mxCell id="Y4jwXqfifL86XG0g3Bbs-50" value="" style="outlineConnect=0;dashed=0;verticalLabelPosition=bottom;verticalAlign=top;align=center;html=1;shape=mxgraph.aws3.cache_node;fillColor=#2E73B8;gradientColor=none;" vertex="1" parent="1">
          <mxGeometry x="566.75" y="520" width="32.5" height="40" as="geometry" />
        </mxCell>
        <mxCell id="Y4jwXqfifL86XG0g3Bbs-51" value="" style="outlineConnect=0;dashed=0;verticalLabelPosition=bottom;verticalAlign=top;align=center;html=1;shape=mxgraph.aws3.cache_node;fillColor=#2E73B8;gradientColor=none;" vertex="1" parent="1">
          <mxGeometry x="576.75" y="530" width="32.5" height="40" as="geometry" />
        </mxCell>
        <mxCell id="Y4jwXqfifL86XG0g3Bbs-52" value="" style="rounded=1;whiteSpace=wrap;html=1;dashed=1;strokeWidth=2;fillColor=none;strokeColor=#3399FF;" vertex="1" parent="1">
          <mxGeometry x="535.12" y="500" width="95.77" height="100" as="geometry" />
        </mxCell>
        <mxCell id="Y4jwXqfifL86XG0g3Bbs-53" value="Caches" style="text;html=1;align=center;verticalAlign=middle;whiteSpace=wrap;rounded=0;" vertex="1" parent="1">
          <mxGeometry x="551.89" y="570" width="60" height="30" as="geometry" />
        </mxCell>
        <mxCell id="Y4jwXqfifL86XG0g3Bbs-54" value="&lt;span style=&quot;font-size: 12px; text-wrap: wrap; background-color: rgb(251, 251, 251);&quot;&gt;Geo-routed&lt;/span&gt;" style="endArrow=classic;html=1;rounded=0;entryX=0.5;entryY=0;entryDx=0;entryDy=0;exitX=1;exitY=0.5;exitDx=0;exitDy=0;exitPerimeter=0;" edge="1" parent="1" source="bp-vKxV_hlAgK0k2TYMo-7" target="Y4jwXqfifL86XG0g3Bbs-36">
          <mxGeometry width="50" height="50" relative="1" as="geometry">
            <mxPoint x="390" y="297" as="sourcePoint" />
            <mxPoint x="245" y="350" as="targetPoint" />
          </mxGeometry>
        </mxCell>
        <mxCell id="Y4jwXqfifL86XG0g3Bbs-55" value="" style="endArrow=classic;html=1;rounded=0;exitX=0.5;exitY=1;exitDx=0;exitDy=0;entryX=0.5;entryY=0;entryDx=0;entryDy=0;" edge="1" parent="1" source="Y4jwXqfifL86XG0g3Bbs-1" target="u_6Jhnb3s3K0sa4x8jdL-8">
          <mxGeometry width="50" height="50" relative="1" as="geometry">
            <mxPoint x="400" y="520" as="sourcePoint" />
            <mxPoint x="450" y="470" as="targetPoint" />
          </mxGeometry>
        </mxCell>
        <mxCell id="Y4jwXqfifL86XG0g3Bbs-56" value="" style="endArrow=classic;html=1;rounded=0;exitX=0.5;exitY=1;exitDx=0;exitDy=0;entryX=0.5;entryY=0;entryDx=0;entryDy=0;" edge="1" parent="1" source="Y4jwXqfifL86XG0g3Bbs-1" target="Y4jwXqfifL86XG0g3Bbs-28">
          <mxGeometry width="50" height="50" relative="1" as="geometry">
            <mxPoint x="240" y="480" as="sourcePoint" />
            <mxPoint x="186" y="510" as="targetPoint" />
          </mxGeometry>
        </mxCell>
        <mxCell id="Y4jwXqfifL86XG0g3Bbs-58" value="" style="endArrow=classic;html=1;rounded=0;exitX=0.5;exitY=1;exitDx=0;exitDy=0;entryX=0.5;entryY=0;entryDx=0;entryDy=0;" edge="1" parent="1" source="Y4jwXqfifL86XG0g3Bbs-40" target="Y4jwXqfifL86XG0g3Bbs-37">
          <mxGeometry width="50" height="50" relative="1" as="geometry">
            <mxPoint x="250" y="490" as="sourcePoint" />
            <mxPoint x="196" y="520" as="targetPoint" />
          </mxGeometry>
        </mxCell>
        <mxCell id="Y4jwXqfifL86XG0g3Bbs-59" value="" style="endArrow=classic;html=1;rounded=0;exitX=0.5;exitY=1;exitDx=0;exitDy=0;entryX=0.5;entryY=0;entryDx=0;entryDy=0;" edge="1" parent="1" source="Y4jwXqfifL86XG0g3Bbs-40" target="Y4jwXqfifL86XG0g3Bbs-52">
          <mxGeometry width="50" height="50" relative="1" as="geometry">
            <mxPoint x="260" y="500" as="sourcePoint" />
            <mxPoint x="206" y="530" as="targetPoint" />
          </mxGeometry>
        </mxCell>
        <mxCell id="Y4jwXqfifL86XG0g3Bbs-60" value="" style="endArrow=classic;html=1;rounded=0;exitX=0;exitY=1;exitDx=0;exitDy=0;entryX=0.5;entryY=0;entryDx=0;entryDy=0;entryPerimeter=0;" edge="1" parent="1" source="Y4jwXqfifL86XG0g3Bbs-40" target="gn3RjjWk8DFoDF5kcvNO-3">
          <mxGeometry width="50" height="50" relative="1" as="geometry">
            <mxPoint x="305" y="480" as="sourcePoint" />
            <mxPoint x="371" y="680" as="targetPoint" />
          </mxGeometry>
        </mxCell>
      </root>
    </mxGraphModel>
  </diagram>
</mxfile>
